<?xml version="1.0" standalone="no"?>
<!DOCTYPE svg PUBLIC "-//W3C//DTD SVG 20010904//EN"
 "http://www.w3.org/TR/2001/REC-SVG-20010904/DTD/svg10.dtd">
<svg version="1.0" xmlns="http://www.w3.org/2000/svg"
 width="8000.000000pt" height="8000.000000pt" viewBox="0 0 8000.000000 8000.000000"
 preserveAspectRatio="xMidYMid meet">
<metadata>
Created by potrace 1.15, written by Peter Selinger 2001-2017
</metadata>
<g transform="translate(0.000000,8000.000000) scale(0.100000,-0.100000)"
fill="#000000" stroke="none">
<path d="M44283 75471 c-1178 -20 -2144 -38 -2146 -41 -7 -7 7742 -3122 7755
-3118 5 2 -638 722 -1428 1601 l-1438 1597 -300 -1 c-166 -1 -1265 -18 -2443
-38z"/>
<path d="M39243 74112 c-1184 -592 -2153 -1079 -2153 -1082 0 -3 2373 -1022
5273 -2264 2899 -1243 5296 -2270 5325 -2283 28 -12 52 -19 52 -15 0 4 -1312
1517 -2916 3362 l-2915 3355 -257 2 -257 2 -2152 -1077z"/>
<path d="M42701 74854 c9 -10 1269 -1486 2800 -3280 1531 -1793 2789 -3261
2794 -3260 9 0 1204 3723 1205 3751 0 9 -6733 2787 -6790 2802 -24 6 -24 5 -9
-13z"/>
<path d="M35210 71235 c-811 -855 -1476 -1558 -1478 -1563 -1 -4 69 -6 155 -4
1153 20 9202 152 9308 152 80 0 145 3 145 8 0 8 -6603 2953 -6635 2959 -16 3
-348 -342 -1495 -1552z"/>
<path d="M50234 72149 c12 -46 355 -1291 762 -2767 457 -1660 743 -2681 749
-2678 6 2 2076 578 4601 1281 2524 702 4591 1279 4593 1281 2 2 2 6 0 8 -6 5
-10669 2949 -10701 2954 l-27 4 23 -83z"/>
<path d="M49726 71653 c-3 -10 -255 -821 -561 -1802 -305 -982 -554 -1785
-552 -1786 1 -2 562 -273 1245 -604 l1244 -601 120 0 120 0 -6 33 c-4 17 -309
1099 -679 2402 l-672 2370 -127 3 c-114 2 -127 1 -132 -15z"/>
<path d="M38248 69271 c-2778 -93 -4671 -161 -4677 -166 -11 -12 -1362 -3986
-1359 -3996 2 -5 10874 4273 10953 4310 14 7 -23 9 -115 9 -74 0 -2235 -71
-4802 -157z"/>
<path d="M37262 64423 c-3994 -2709 -7260 -4928 -7258 -4930 4 -5 21487 6804
21495 6813 2 2 2 6 0 8 -11 9 -6951 3036 -6962 3036 -6 0 -3280 -2217 -7275
-4927z"/>
<path d="M38007 67016 l-5638 -2143 -1401 -2522 c-771 -1387 -1399 -2523
-1397 -2525 2 -3 3165 2090 7029 4650 3864 2560 7032 4659 7040 4664 8 4 13
11 10 13 -3 3 -2542 -959 -5643 -2137z"/>
<path d="M40859 62396 c-5883 -1844 -10705 -3356 -10715 -3361 -15 -6 -16 -9
-4 -12 37 -9 23755 -3200 23759 -3197 3 2 -517 2235 -1155 4962 -876 3747
-1163 4957 -1174 4959 -8 1 -4828 -1507 -10711 -3351z"/>
<path d="M29570 58705 c0 -3 4206 -9459 9346 -21013 5141 -11554 9353 -21023
9362 -21042 13 -31 15 -33 23 -15 13 32 5683 38625 5675 38632 -6 6 -24346
3442 -24388 3443 -10 0 -18 -2 -18 -5z"/>
<path d="M29170 58145 c0 -29 7134 -41591 7141 -41599 8 -9 11416 -252 11425
-243 5 5 -18542 41824 -18558 41842 -5 5 -8 5 -8 0z"/>
<path d="M28846 57979 c-17 -50 -12318 -55510 -12313 -55515 4 -4 18826 13495
19285 13831 4 3 -6958 41688 -6963 41694 -3 2 -7 -2 -9 -10z"/>
<path d="M54362 54793 c-6 -43 -351 -2425 -767 -5293 -3137 -21639 -4728
-32687 -4724 -32790 2 -45 16 31 70 390 l52 345 1309 4860 c720 2673 1849
6863 2508 9310 2965 11008 5080 18869 5087 18910 4 28 -139 206 -1752 2185
-966 1185 -1760 2156 -1764 2158 -4 1 -13 -32 -19 -75z"/>
</g>
</svg>
