<?xml version="1.0" encoding="utf-8"?>
<!-- Generator: Adobe Illustrator 22.1.0, SVG Export Plug-In . SVG Version: 6.00 Build 0)  -->
<svg version="1.1" id="Layer_1" xmlns="http://www.w3.org/2000/svg" xmlns:xlink="http://www.w3.org/1999/xlink" x="0px" y="0px"
	 viewBox="0 0 1920 1080" style="enable-background:new 0 0 1920 1080;" xml:space="preserve">
<style type="text/css">
	.st0{fill:#394182;}
	.st1{font-family:'NimbusSan-Lig';}
	.st2{font-size:185px;}
	.st3{letter-spacing:24;}
	.st4{fill:#F05339;}
	.st5{fill:#F79433;}
	.st6{fill:#A1519F;}
	.st7{fill:#692979;}
</style>
<text transform="matrix(1 0 0 1 547.8807 568.6718)" class="st0 st1 st2 st3">RAVENCOIN</text>
<g>
	<path class="st0" d="M134.8,855c6.7-5.1,13.7-9.9,20.5-14.8c8.7-6.3,17.4-12.5,26.1-18.8c9.5-6.9,19-13.8,28.6-20.6
		c7.3-5.2,14.7-10.5,22-15.8c9.4-6.8,18.7-13.6,28.1-20.4c6.7-4.8,13.5-9.5,20.2-14.3c5-3.6,10-7.3,15.1-10.9c1.2-0.9,0.4-2,0.2-2.9
		c-0.5-4-1.3-7.9-2-11.9c-0.8-4.5-1.6-9-2.3-13.6c-0.6-3.8-1.2-7.7-1.8-11.5c-0.5-3.2-1.1-6.4-1.7-9.6c-0.5-3.3-1-6.5-1.6-9.8
		c-0.6-3.9-1.3-7.8-2-11.7c-0.5-3.2-1-6.3-1.5-9.5c-0.7-4-1.4-8-2-12c-0.6-3.8-1.2-7.7-1.8-11.5c-0.6-3.8-1.3-7.6-2-11.4
		c-0.5-3.3-1-6.6-1.5-9.9c-0.6-3.8-1.2-7.5-1.9-11.3c-0.5-3.2-1.1-6.4-1.7-9.6c-0.7-4-1.4-8.1-2-12.2c-0.6-3.8-1.2-7.7-1.8-11.5
		c-0.6-3.8-1.4-7.6-2-11.4c-0.5-3.3-1-6.5-1.5-9.8c-0.6-3.9-1.3-7.7-1.9-11.6c-0.5-3.2-1-6.4-1.6-9.6c-0.7-4-1.3-7.9-2-11.9
		c-0.5-3.2-1-6.3-1.6-9.5c-0.7-3.9-1.3-7.8-2-11.7c-0.5-3.4-1-6.7-1.5-10.1c-0.6-3.7-1.2-7.4-1.9-11.2c-0.5-3.2-1.1-6.5-1.7-9.7
		c-0.7-3.9-1.3-7.7-2-11.6c-0.5-3.3-1-6.6-1.6-9.9c-0.6-3.9-1.3-7.7-2-11.6c-0.5-3.2-1-6.4-1.6-9.6c-0.7-4-1.3-7.9-2-11.9
		c-0.5-3.2-1-6.4-1.6-9.6c-0.5-2.8-0.6-5.7-1.8-8.4c-0.4,0.5-0.3,0.5-0.7,1.3c-0.3,0.5-0.2,1-0.3,1.6c-1.8,7.8-3.5,15.6-5.2,23.4
		c-1.2,5.5-2.5,10.9-3.7,16.4c-1.4,6.5-2.8,13-4.2,19.5c-1.3,5.8-2.7,11.7-4,17.5c-1.4,6.5-2.8,13-4.2,19.5
		c-1.3,5.8-2.7,11.7-4,17.5c-1.4,6.5-2.8,13-4.2,19.5c-1.2,5.4-2.5,10.8-3.7,16.3c-1.8,8.3-3.6,16.5-5.4,24.8
		c-1.1,5-2.3,9.9-3.4,14.9c-1.4,6.5-2.8,13-4.3,19.5c-1.1,5-2.3,9.9-3.4,14.9c-1.4,6.5-2.8,13-4.3,19.5c-1.2,5.5-2.5,10.9-3.7,16.4
		c-1.4,6.5-2.8,13-4.2,19.5c-1.3,5.9-2.8,11.8-4.1,17.6c-1.5,6.8-2.9,13.6-4.4,20.4c-1.8,8.2-3.8,16.4-5.5,24.6
		c-1.8,8.5-3.7,16.9-5.6,25.4c-1.6,7-3.1,14-4.7,21c-1.9,8.2-3.6,16.5-5.4,24.7c-1.1,4.9-2.2,9.8-3.3,14.7c-1.4,6.5-2.9,13-4.3,19.5
		c-1,4.6-2.1,9.2-3.1,13.7c0,0-0.1,0-0.1,0.1C134.7,854.6,134.3,855.1,134.8,855z"/>
	<path class="st4" d="M345.9,245.7c2.2,1.3,4.7,2,7,2.9c8,3.2,16.1,6.5,24.1,9.7c8.5,3.4,17.1,6.8,25.6,10.3c3,1.2,5.9,2.4,8.8,3.6
		c0.5,0.2,1,0.7,1.5,0c0.4-0.6,0.5-1.2,0-1.8c-0.1-0.1-0.3-0.3-0.4-0.4c-3.1-3.2-6.2-6.3-9.3-9.6c-3.5-3.8-7-7.6-10.7-11.2
		c-0.3-0.3-0.6-0.8-0.9-1.1c-0.9-1.1-2-2.1-3.5-2.2C374.1,245.7,360,245.7,345.9,245.7z"/>
	<path class="st4" d="M400,739.6c0.4-2.8,0.8-5.3,1.2-7.9c0.5-3.1,1-6.1,1.4-9.2c0.4-3,0.8-6.1,1.2-9.1c0.4-3,0.9-6,1.4-9.1
		c0.4-2.9,0.8-5.8,1.3-8.7c0.5-3.8,1-7.6,1.7-11.4c0.5-3,0.8-6.1,1.3-9.1c0.4-3,0.9-6,1.4-9.1c0.4-2.9,0.8-5.8,1.3-8.7
		c0.5-3.8,1-7.6,1.7-11.4c0.5-3,0.8-6.1,1.3-9.1c0.4-3,0.9-6,1.4-9.1c0.4-2.9,0.8-5.8,1.3-8.7c0.5-3.8,1-7.6,1.7-11.4
		c0.5-3,0.8-6.1,1.3-9.1c0.4-3,0.9-6,1.4-9.1c0.4-2.9,0.8-5.9,1.3-8.8c0.6-3.7,1.1-7.5,1.7-11.2c0.4-3,0.8-6.1,1.2-9.1
		c0.4-3,0.9-6,1.4-9.1c0.4-2.9,0.8-5.9,1.3-8.8c0.4-3,0.9-6.1,1.4-9.1c0.3-2.4,0.6-4.7,1-7.1c0.4-3,0.9-6,1.4-9.1
		c0.3-2.3,0.6-4.7,1-7c0.5-3.1,0.9-6.1,1.4-9.2c0.4-2.9,0.8-5.8,1.2-8.7c0.6-3.8,1-7.6,1.7-11.4c0.5-3,0.8-6,1.3-9
		c0.4-3.1,0.9-6.1,1.4-9.2c0.4-2.9,0.8-5.9,1.3-8.8c0.4-3,0.9-6.1,1.4-9.1c0.3-2.3,0.6-4.7,1-7c0.5-3.1,0.9-6.1,1.4-9.2
		c0.3-2.3,0.6-4.7,1-7c0.3-2.4,0.7-4.7,1.1-7.1c0.3-1.6,0.2-1.8-1.3-2c-4.6-0.7-9.3-1.4-13.9-2c-3.2-0.4-6.4-0.8-9.6-1.2
		c-3.2-0.4-6.3-1-9.5-1.4c-3.3-0.4-6.6-0.8-9.9-1.2c-3.2-0.4-6.3-1-9.5-1.4c-3.2-0.4-6.5-0.8-9.7-1.2c-2.4-0.3-4.8-0.8-7.2-1.1
		c-2.5-0.3-5-0.6-7.6-1c-2.4-0.3-4.8-0.7-7.3-1c-2.5-0.3-5-0.7-7.5-1c-2.5-0.4-5-0.7-7.5-1.1c-2.5-0.3-5-0.7-7.6-1
		c-2.4-0.3-4.8-0.6-7.3-1c-2.6-0.4-5.1-0.7-7.7-1.1c-3.3-0.5-6.5-0.9-9.8-1.4c-2.4-0.3-4.8-0.6-7.3-1c-3.3-0.5-6.6-0.9-9.9-1.4
		c-3.2-0.5-6.5-0.8-9.7-1.2c-2.4-0.3-4.8-0.7-7.2-1.1c-2.4-0.3-4.8-0.6-7.3-1c-3.4-0.5-6.7-0.9-10.1-1.4c-2.4-0.3-4.9-0.6-7.3-0.9
		c-3.3-0.5-6.5-1-9.8-1.4c-1.2-0.1-2.5-0.6-3.8-0.3c1.2,2.7,2.3,5.4,3.5,8c3.1,7.1,6.3,14.1,9.4,21.2c2.2,4.9,4.5,9.8,6.6,14.7
		c3.3,7.5,6.6,15,9.9,22.4c2.2,5,4.4,9.9,6.6,14.8c3.8,8.5,7.5,17,11.3,25.5c2.6,5.8,5.2,11.5,7.8,17.3c3.7,8.3,7.3,16.7,11,25
		c2.2,4.9,4.4,9.8,6.6,14.7c3.7,8.3,7.3,16.7,11,25c2.3,5.1,4.6,10.1,6.9,15.2c3.3,7.5,6.6,15,9.9,22.4c2.2,4.9,4.4,9.8,6.6,14.7
		c3.3,7.5,6.6,15,9.9,22.4c2.3,5.1,4.6,10.2,6.9,15.3c3.3,7.4,6.5,14.9,9.8,22.3c2.2,4.9,4.4,9.9,6.6,14.8
		c3.3,7.4,6.5,14.8,9.8,22.3C394.9,728.4,397.4,733.8,400,739.6z"/>
	<path class="st0" d="M396.8,739.9c-2-4.6-4-9-6-13.5c-2.9-6.6-5.9-13.3-8.8-19.9c-1.7-3.7-3.3-7.5-5-11.2c-3-6.7-5.9-13.4-8.9-20.1
		c-2.2-4.9-4.4-9.7-6.6-14.5c-2.9-6.6-5.8-13.2-8.7-19.8c-2.1-4.8-4.3-9.6-6.5-14.4c-2.9-6.6-5.9-13.3-8.8-19.9
		c-1.7-3.7-3.3-7.5-5-11.2c-3-6.7-5.9-13.4-8.9-20.1c-2.2-4.9-4.4-9.7-6.6-14.5c-2.9-6.6-5.8-13.2-8.7-19.8
		c-2.1-4.8-4.3-9.6-6.5-14.4c-2.9-6.6-5.9-13.3-8.8-19.9c-1.7-3.7-3.3-7.5-5-11.2c-3-6.7-5.9-13.4-8.9-20.1c-1.6-3.5-3.1-7-4.7-10.5
		c-2.9-6.5-5.8-12.9-8.7-19.4c-3-6.8-6-13.6-9-20.3c-2-4.6-4.1-9.2-6.1-13.8c-3-6.7-5.9-13.4-8.9-20.1c-0.4-0.9-0.9-1.7-1.2-2.6
		c-0.1-0.2-0.1-0.8-0.6-0.7c-0.4,0.2-0.9,0.5-0.8,1.1c0.5,3,1,6,1.5,9c0.6,3.2,1.1,6.5,1.7,9.7c0.6,3.7,1.2,7.4,1.9,11.2
		c0.5,3.2,1.1,6.5,1.7,9.7c0.6,3.7,1.3,7.4,1.9,11.2c0.5,3.2,1.1,6.5,1.7,9.7c0.7,3.9,1.3,7.7,2,11.6c0.6,3.7,1.2,7.4,1.9,11.2
		c0.6,3.8,1.3,7.6,1.9,11.4c0.5,3.2,1,6.4,1.6,9.6c0.6,3.8,1.3,7.5,2,11.3c0.5,3.2,1,6.3,1.6,9.5c0.6,3.7,1.2,7.4,1.8,11.2
		c0.5,3.2,1.1,6.5,1.7,9.7c0.7,3.9,1.3,7.8,2,11.7c0.6,3.7,1.2,7.5,1.8,11.2c0.6,3.8,1.3,7.6,2,11.4c0.5,3.2,1,6.3,1.6,9.5
		c0.6,3.7,1.2,7.4,1.9,11.2c0.5,3.2,1.1,6.5,1.7,9.7c0.6,3.7,1.2,7.4,1.9,11.2c0.5,3.2,1.1,6.5,1.7,9.7c0.7,3.9,1.3,7.7,2,11.6
		c0.6,3.7,1.2,7.4,1.9,11.2c0.6,3.8,1.2,7.5,1.9,11.3c0.5,3.2,1.1,6.5,1.7,9.7c0.6,3.8,1.3,7.5,2,11.3c0.5,3.2,1,6.4,1.6,9.6
		c0.6,3.7,1.2,7.4,1.8,11c0.6,3.2,1.1,6.5,1.7,9.7c0.7,3.9,1.3,7.8,2,11.7c0.6,3.7,1.2,7.4,1.8,11.2c0.4,2.5,0.8,5.1,1.2,7.6
		c0.1,0.7,0.4,1,1.3,1.1c6.1,0.2,12.2,0.1,18.3,0.3c4.7,0.2,9.4-0.1,14,0.3c4.6,0.4,9.2-0.1,13.8,0.3c4.8,0.4,9.7-0.1,14.5,0.3
		c4.4,0.4,8.9-0.1,13.3,0.3c4.9,0.4,9.8-0.1,14.6,0.3C390.8,739.8,393.7,739.6,396.8,739.9z"/>
	<path class="st5" d="M427.3,325c-4.4,1.4-8.7,2.8-13,4.2c-9,2.9-18.1,5.8-27.1,8.6c-6.7,2.1-13.4,4.2-20,6.4c-9,2.9-18,5.7-27,8.6
		c-8.9,2.8-17.8,5.7-26.7,8.5c-8.6,2.7-17.3,5.5-25.9,8.3c-6.7,2.1-13.4,4.2-20,6.4c-6.7,2.1-13.4,4.3-20.2,6.5
		c-0.2,0.1-0.4,0.1-0.4,0.5c1.7,0.2,3.4,0.5,5.2,0.7c3.3,0.5,6.6,1,10,1.4c2.5,0.3,5.1,0.6,7.6,0.9c3.2,0.4,6.5,0.9,9.7,1.4
		c2.5,0.3,5.1,0.6,7.6,1c3.2,0.4,6.4,0.9,9.6,1.3c2.6,0.3,5.1,0.7,7.7,1c3.2,0.4,6.4,0.8,9.6,1.3c2.5,0.3,4.9,0.7,7.4,1.1
		c3.4,0.5,6.8,1,10.3,1.4c3.2,0.4,6.5,0.8,9.7,1.2c3.2,0.4,6.4,0.9,9.5,1.4c2.5,0.3,5,0.6,7.4,1c3.3,0.5,6.6,1,10,1.4
		c3.2,0.4,6.5,0.8,9.7,1.2c3.2,0.4,6.4,0.9,9.6,1.4c2.5,0.3,5,0.7,7.4,1c3.3,0.5,6.7,0.9,10,1.4c2.4,0.3,4.9,0.6,7.3,1
		c3.4,0.5,6.7,1,10.1,1.4c3.2,0.4,6.5,0.8,9.7,1.2c3.2,0.4,6.4,0.9,9.5,1.4c1.6,0.2,3.2,0.5,4.8,0.7c0.8,0.1,0.7-0.5,0.6-1
		c-1.1-4.5-2.1-9-3.2-13.5c-2-8.2-3.9-16.4-5.9-24.7c-1.6-6.8-3.3-13.5-4.9-20.3c-1.9-8-3.8-16-5.6-24
		C427.2,326.1,427.3,325.6,427.3,325z"/>
	<path class="st0" d="M450.3,416.8c-15.4,105.9-30.8,211.4-46.2,317c0.1,0,0.1,0,0.2,0c1-3.8,2-7.6,3-11.4c1.9-7,3.8-14,5.7-21.1
		c1.6-6.1,3.3-12.1,4.9-18.2c1.8-6.4,3.5-12.9,5.3-19.3c1.7-6.3,3.4-12.6,5.1-19c1.9-7,3.8-14.1,5.7-21.1c1.6-6.1,3.3-12.2,4.9-18.3
		c1.9-6.9,3.7-13.8,5.6-20.8c1.7-6.1,3.3-12.2,5-18.3c1.8-6.5,3.5-13,5.2-19.5c2.8-10.5,5.5-21,8.4-31.4
		c3.7-13.6,7.5-27.1,11.2-40.7c1.9-6.8,3.6-13.7,5.5-20.5c0.2-0.7,0.1-1-0.3-1.5c-2.9-3.5-5.7-7.1-8.6-10.6
		c-2.4-2.9-4.9-5.9-7.3-8.8c-2.8-3.4-5.5-6.8-8.2-10.2C453.9,421.1,452.2,419.1,450.3,416.8z"/>
	<path class="st0" d="M245.3,379.7c1.5-0.3,2.8-0.7,4.1-1.2c7.5-2.4,15.1-4.8,22.7-7.2c6.3-2,12.7-4,19-6c8.4-2.7,16.8-5.3,25.3-8
		c6.5-2.1,12.9-4.1,19.4-6.2c8.6-2.8,17.3-5.5,25.9-8.3c8.3-2.7,16.7-5.3,25-7.9c6.4-2,12.9-4.1,19.3-6.1c6.5-2.1,13-4.2,19.5-6.3
		c0.4-0.1,1,0.2,1.4-0.6c-5.7-2.4-11.4-4.8-17-7.2c-4.9-2.1-9.9-4.3-14.8-6.4c-5.9-2.5-11.7-4.9-17.6-7.4c-2.6-1.1-5.1-2.3-7.7-3.4
		c-0.7-0.3-1.4-0.4-2.3,0.2c-12.2,8.2-24.4,16.4-36.6,24.6c-11.7,7.8-23.3,15.6-35,23.4c-8.4,5.6-16.8,11.1-25.1,16.8
		c-8.3,5.7-16.7,11.2-25.1,16.8C245.6,379.3,245.6,379.5,245.3,379.7z"/>
	<path class="st5" d="M428.5,319.8c0.1,0.1,0.2,0.2,0.3,0.3c1-1,2.2-0.1,3.3-0.4c11.5-3.1,23.1-6.2,34.6-9.2
		c11.7-3.1,23.4-6.1,35.1-9.2c1.1-0.3,2.3-0.6,3.2-1.3c1.4-1.1,1.3-1.6-0.1-2.4c-0.7-0.4-1.4-0.7-2.1-0.9c-6.3-1.7-12.7-3.5-19-5.3
		c-8.8-2.4-17.6-4.9-26.3-7.3c-8.5-2.4-17-4.8-25.5-7.1c-5.2-1.4-10.3-3.1-15.5-4.1c-0.9-0.2-0.8,0.1-0.5,0.7
		c0.1,1.2-0.2,2.4,0.2,3.5c1.5,5,3.1,10,4.5,15c1.8,6.4,4.1,12.7,5.6,19.2c0,0.2,0,0.4,0,0.6c0.4,0.4,0.5,0.9,0.6,1.5
		c0.1,0.5,0.2,1,0.3,1.5c0.2,0.1,0.3,0.3,0.3,0.6C427.6,316.6,428.4,318.1,428.5,319.8z"/>
	<path class="st4" d="M243.2,377.9c5.2-3.5,10.5-6.9,15.7-10.4c18.7-12.5,37.5-25,56.2-37.4c16.8-11.2,33.6-22.4,50.4-33.6
		c0.3-0.2,0.6-0.5,1-0.8c-1.6,0.1-2.9,0.9-4.2,1.4c-9.3,3.6-18.7,7.3-28,11c-8.2,3.3-16.4,6.6-24.6,9.8
		c-10.4,4.1-20.8,8.1-31.2,12.2c-3.8,1.5-7.6,3-11.4,4.5c-1.5,0.6-1.8,1.9-2.4,3c-3.2,5.8-6.4,11.7-9.6,17.6
		c-3.5,6.5-7.1,13-10.6,19.5c-0.5,1-1.3,1.9-1.5,3.1C243.1,377.7,243.1,377.8,243.2,377.9z"/>
	<path class="st4" d="M304.8,266.3c30.9,13.3,61.5,26.5,92.3,39.8c-1-1.9-2.5-3-3.6-4.4c-3.6-4.2-7.3-8.4-11-12.6
		c-1.7-2-3.5-3.9-5.2-5.9c-3.8-4.2-7.5-8.5-11.3-12.7c-1.8-2-3.7-4-5.5-6.1c-3.7-4.1-7.3-8.3-11-12.4c-1.2-1.4-2.5-2.7-3.7-4.1
		c-0.6-0.7-1.1-0.6-1.8-0.2c-7.4,3.5-14.8,7.1-22.3,10.6c-5.2,2.5-10.4,4.9-15.7,7.3C305.7,265.8,305.4,265.9,304.8,266.3z"/>
	<path class="st0" d="M360.1,295.1c-3.6,1-7.3,0.1-10.8,0.8c-0.1,0-0.3,0-0.4,0c-4.1,0.1-8.2,0.1-12.3,0.3c-5,0.3-9.9,0.4-14.9,0.6
		c-4.7,0.2-9.3,0.4-14,0.6c-5.1,0.2-10.1,0.4-15.2,0.6c-4.7,0.2-9.3,0.5-14,0.5c-0.7,0-1.2-0.1-1.5,0.9c-3,8.3-5.6,16.8-8.5,25.2
		c-0.8,2.2-1.6,4.5-2.3,6.7c-0.1,0.4-0.6,0.8-0.2,1.2c0.3,0.3,0.7-0.1,1-0.2c4.4-1.7,8.7-3.5,13.1-5.2c8.2-3.2,16.4-6.5,24.5-9.7
		c7.3-2.9,14.5-5.7,21.8-8.5c8-3.1,15.9-6.3,23.9-9.4c3.2-1.3,6.4-2.6,9.7-3.8C360.1,295.5,360.1,295.3,360.1,295.1z"/>
	<path class="st4" d="M360.7,292.7c-2.8-1.3-5.5-2.4-8.1-3.5c-4.2-1.8-8.3-3.6-12.5-5.4c-5.7-2.5-11.5-5.1-17.2-7.6
		c-6.3-2.7-12.5-5.5-18.8-8.2c-0.5-0.2-0.8,0-1.1,0.3c-1.1,1.1-2.1,2.3-3.2,3.4c-4.1,4.3-8.4,8.4-12.3,12.7
		c-3.5,3.8-7.4,7.3-10.7,11.4c2,0.2,3.9-0.2,5.8-0.2c5.1,0.1,10.1-0.3,15.2-0.4c2.9-0.1,5.8,0,8.8-0.2c5.8-0.4,11.6-0.4,17.4-0.7
		c2.9-0.1,5.9,0.1,8.8-0.3c3-0.3,6,0,8.9-0.3c2.9-0.3,5.9,0,8.8-0.3c2.9-0.3,5.7-0.2,8.6-0.2C359.6,293.3,360.1,293.1,360.7,292.7z"
		/>
	<path class="st5" d="M351.3,250c4.2,4.9,8.3,9.8,12.6,14.7c2.9,3.3,5.8,6.5,8.6,9.8c4,4.6,7.9,9.3,11.9,13.9
		c2.7,3.2,5.6,6.3,8.3,9.5c2.1,2.5,4.3,5,6.4,7.5c0.2,0.3,0.4,0.6,0.7,1.1c3.6-10.7,7.1-20.9,10.5-31.1c0.2-0.6,0.1-0.8-0.5-1.1
		c-8.1-3.4-16.2-6.8-24.3-10.2c-6.1-2.6-12.3-5.3-18.4-7.9c-5.2-2.2-10.4-4.3-15.5-6.5C351.4,249.8,351.4,249.9,351.3,250z"/>
	<path class="st4" d="M425.8,318.7c-4.3-14.5-8.6-28.8-13-43.3c-2.2,5.5-3.8,11.1-5.7,16.5c-1.7,4.8-3.3,9.7-5,14.6
		c-0.2,0.6-0.1,0.8,0.4,1.1c7.6,3.7,15.2,7.4,22.8,11.1C425.4,318.8,425.5,318.7,425.8,318.7z"/>
	<path class="st6" d="M351.5,249.8c-0.1-0.2-0.3-0.3-0.4-0.2c-0.2,0.2,0.1,0.3,0.2,0.4C351.4,249.9,351.4,249.8,351.5,249.8z"/>
	<path class="st7" d="M243,377.6c-0.3,0.1-0.3,0.3-0.2,0.5c0.1-0.1,0.3-0.2,0.4-0.3C243.1,377.8,243.1,377.7,243,377.6z"/>
</g>
</svg>
