<?xml version="1.0" standalone="no"?>
<!DOCTYPE svg PUBLIC "-//W3C//DTD SVG 20010904//EN"
 "http://www.w3.org/TR/2001/REC-SVG-20010904/DTD/svg10.dtd">
<svg version="1.0" xmlns="http://www.w3.org/2000/svg"
 width="900.000000pt" height="335.000000pt" viewBox="0 0 900.000000 335.000000"
 preserveAspectRatio="xMidYMid meet">

<g transform="translate(0.000000,335.000000) scale(0.100000,-0.100000)"
fill="#000000" stroke="none">
<path d="M0 1675 l0 -1675 4500 0 4500 0 0 1675 0 1675 -4500 0 -4500 0 0
-1675z m2285 916 l70 -18 7 -44 c9 -50 12 -52 106 -81 39 -13 72 -25 72 -29 0
-3 -36 -18 -80 -33 -44 -16 -82 -32 -85 -36 -3 -4 15 -57 39 -116 l44 -109
-55 -285 c-30 -157 -57 -287 -59 -289 -3 -3 -59 -19 -126 -36 l-122 -32 -196
-361 c-107 -199 -196 -358 -198 -354 -2 8 23 180 163 1117 30 204 58 371 63
373 4 1 21 11 38 21 33 20 32 17 69 187 l16 70 82 36 c45 20 82 36 82 37 0 0
31 -8 70 -18z m3373 -501 c45 -25 73 -59 90 -107 11 -32 10 -33 -17 -33 -22 0
-29 7 -40 35 -19 55 -77 88 -150 88 -123 -1 -191 -83 -191 -228 0 -72 13 -117
47 -163 41 -55 121 -81 192 -62 49 13 107 76 117 124 5 29 11 36 30 36 30 0
31 -24 4 -84 -27 -56 -65 -92 -119 -111 -185 -65 -355 98 -321 309 17 104 68
174 152 209 58 23 152 17 206 -13z m635 -3 c75 -45 120 -135 121 -242 0 -131
-65 -230 -172 -261 -214 -62 -375 131 -306 367 19 66 91 141 150 157 63 18
157 8 207 -21z m-3407 -1 c42 -25 64 -65 64 -116 0 -53 -21 -92 -62 -119 -19
-12 -26 -21 -17 -21 37 0 61 -46 70 -129 4 -45 11 -90 14 -102 6 -18 3 -20
-21 -17 -28 3 -29 5 -39 88 -6 47 -16 95 -23 106 -17 32 -64 44 -173 44 -92 0
-99 1 -99 20 0 19 7 20 110 20 63 0 120 5 135 12 50 23 69 92 40 147 -19 37
-80 53 -194 50 -82 -2 -86 -1 -89 20 l-4 23 129 -4 c103 -2 134 -7 159 -22z
m559 -232 c55 -141 102 -261 104 -266 2 -5 -9 -8 -25 -6 -25 3 -32 12 -60 83
l-32 80 -118 0 -119 0 -34 -82 c-29 -71 -37 -83 -57 -83 -13 0 -24 2 -24 5 0
5 163 414 194 488 13 30 21 37 44 37 26 0 30 -8 127 -256z m255 22 c47 -129
87 -232 89 -230 3 2 41 107 86 232 79 218 83 227 110 230 20 3 26 0 23 -10 -3
-7 -47 -127 -99 -266 l-94 -253 -29 3 c-28 3 -31 9 -122 253 -52 138 -94 256
-94 263 0 6 10 12 23 12 21 0 31 -21 107 -234z m828 212 c-3 -21 -6 -21 -155
-19 l-153 2 0 -95 0 -96 145 0 145 0 0 -25 0 -25 -145 0 -145 0 0 -105 0 -105
155 0 c148 0 155 -1 155 -20 0 -19 -7 -20 -180 -20 l-180 0 0 265 0 265 181 0
c179 0 180 0 177 -22z m387 -193 c81 -119 152 -218 156 -221 5 -3 9 94 9 216
l0 221 23 -3 22 -3 0 -260 0 -260 -27 -3 c-24 -3 -36 11 -131 150 -58 84 -127
184 -154 222 l-48 69 -3 -222 -2 -221 -25 0 -25 0 0 265 0 265 28 0 c26 0 43
-20 177 -215z m1725 -50 l0 -265 -25 0 -25 0 0 265 0 265 25 0 25 0 0 -265z
m392 43 l153 -222 3 222 2 222 25 0 25 0 0 -265 0 -265 -28 0 c-25 0 -42 21
-167 202 -77 111 -144 210 -149 220 -5 10 -13 18 -18 18 -4 0 -8 -99 -8 -220
l0 -220 -25 0 -25 0 0 258 c0 142 3 262 7 265 3 4 17 7 29 7 19 0 52 -42 176
-222z"/>
<path d="M6107 2068 c-113 -31 -169 -192 -116 -333 40 -108 163 -153 271 -99
131 67 133 340 3 415 -39 23 -110 30 -158 17z"/>
<path d="M3303 2033 c-3 -10 -26 -67 -49 -128 l-43 -110 96 -3 c53 -1 98 -1
100 2 5 5 -87 256 -94 256 -2 0 -6 -8 -10 -17z"/>
</g>
</svg>
