 <svg version="1.0" xmlns="http://www.w3.org/2000/svg" width="700.000000pt" height="665.000000pt" viewBox="0 0 700.000000 665.000000" preserveAspectRatio="xMidYMid meet">
<metadata>
Created by potrace 1.12, written by Peter Selinger 2001-2015
</metadata>
<g transform="translate(0.000000,665.000000) scale(0.100000,-0.100000)" fill="#000000" stroke="none">
<path d="M3400 4690 c-8 -5 -78 -35 -155 -66 -245 -99 -769 -315 -799 -330
-16 -8 -35 -14 -42 -14 -7 0 -15 -4 -19 -10 -3 -5 -39 -166 -81 -357 -41 -191
-83 -386 -94 -433 -10 -47 -44 -208 -76 -358 l-58 -274 -238 -141 c-131 -78
-238 -144 -238 -147 0 -3 82 -25 183 -48 100 -23 414 -95 697 -161 283 -66
866 -200 1295 -300 429 -99 836 -193 905 -210 69 -16 127 -28 129 -26 2 3
-117 296 -264 652 -148 356 -270 657 -272 668 -4 17 9 25 84 52 265 94 997
364 1001 368 3 3 3 7 1 8 -2 2 -242 84 -532 182 -291 98 -531 183 -533 189 -2
6 -17 129 -33 274 -16 145 -32 267 -37 272 -5 4 -184 54 -397 110 -213 55
-393 103 -400 105 -7 2 -19 0 -27 -5z m10 -32 c0 -34 -73 -544 -79 -550 -3 -4
-204 28 -445 72 -241 44 -442 80 -447 80 -5 0 -9 4 -9 9 0 5 17 12 38 16 42 8
851 337 897 365 36 22 45 24 45 8z m-834 -516 c88 -54 283 -172 434 -262 151
-90 428 -254 615 -365 187 -111 394 -233 459 -271 66 -38 121 -74 123 -80 2
-7 -20 -14 -59 -18 -35 -4 -139 -18 -233 -31 -205 -29 -779 -109 -1225 -171
-179 -24 -383 -53 -455 -64 -71 -10 -132 -17 -134 -15 -2 3 1 10 6 17 6 7 75
316 154 685 79 370 147 673 150 673 3 0 78 -44 165 -98z"></path>
</g>
</svg>